# xmcd CD database file
#
# Track frame offsets:
#	150
#	22155
#	38319
#	62405
#	82566
#	96859
#	105485
#	123176
#	144581
#	157188
#	171230
#	199772
#	211526
#	230661
#
# Disc length: 3259 seconds
#
# Revision: 1
# Processed by: cddbd v1.5.2PL0 Copyright (c) Steve Scherf et al.
# Submitted via: CDex 1.51
#
DISCID=aa0cb90e
DTITLE=Fede Aguado duo - Con el corazon en la mano
DYEAR=1999
DGENRE=Blues
TTITLE0=NI EN LA MALETA NI EN EL ALMA
TTITLE1=HASTA LA MADRUGADA
TTITLE2=SOLO TENGO UNA CANCIÓN
TTITLE3=LA CALLE DEL AYER
TTITLE4=AY LUCIANA
TTITLE5=FOX CHASE
TTITLE6=PALABRAS DDE CRISTAL
TTITLE7=DESDE MI TUMBA
TTITLE8=JARAMA VALLEY
TTITLE9=EL BLUES DEL AMANECER
TTITLE10=UN MAL DIA
TTITLE11=JOHN HENRY
TTITLE12=LA LIBERTAD
TTITLE13=PISANDOME LOS TALONES
EXTD=YEAR: 1999
EXTT0=
EXTT1=
EXTT2=
EXTT3=
EXTT4=
EXTT5=
EXTT6=
EXTT7=
EXTT8=
EXTT9=
EXTT10=
EXTT11=
EXTT12=
EXTT13=
PLAYORDER=
